<?xml version="1.0" standalone="no"?>
<!DOCTYPE svg PUBLIC "-//W3C//DTD SVG 1.1//EN"
"http://www.w3.org/Graphics/SVG/1.1/DTD/svg11.dtd">

<svg width="471" height="500" view_box="0 0 471 500"
xmlns="http://www.w3.org/2000/svg"
xmlns:link="http://www.w3.org/1999/xlink">\n\n<desc>Généré par Mocodo 2.3.7 le Fri, 12 Nov 2021 10:20:06</desc>

<rect id="frame" x="0" y="0" width="471" height="500" fill="#f7f7f7" stroke="none" stroke-width="0"/>

<!-- Association MADE BY -->
<line x1="291" y1="415" x2="161" y2="415" stroke="#d6604d" stroke-width="2"/>
<text x="222" y="432.0" fill="#2166ac" font-family="Verdana" font-size="12">1,1</text>
<line x1="161" y1="229" x2="161" y2="415" stroke="#d6604d" stroke-width="2"/>
<text x="166.0" y="373" fill="#2166ac" font-family="Verdana" font-size="12">0,N</text>
<g id="association-MADE BY">
	<path d="M 182 390 a 14 14 90 0 1 14 14 V 415 h -70 V 404 a 14 14 90 0 1 14 -14" fill="#f4a582" stroke="#f4a582" stroke-width="0"/>
	<path d="M 196 415.0 v 11 a 14 14 90 0 1 -14 14 H 140 a 14 14 90 0 1 -14 -14 V 415.0 H 70" fill="#fddbc7" stroke="#fddbc7" stroke-width="0"/>
	<rect x="126" y="390" width="70" height="50" fill="none" rx="14" stroke="#d6604d" stroke-width="2"/>
	<line x1="126" y1="415" x2="196" y2="415" stroke="#d6604d" stroke-width="1"/>
	<text x="133" y="407.7" fill="#000000" font-family="Verdana" font-size="12">MADE BY</text>
</g>

<!-- Association USES -->
<line x1="161" y1="229" x2="57" y2="229" stroke="#d6604d" stroke-width="2"/>
<text x="90" y="246.0" fill="#2166ac" font-family="Verdana" font-size="12">0,N</text>
<line x1="57" y1="415" x2="57" y2="229" stroke="#d6604d" stroke-width="2"/>
<text x="62.0" y="373" fill="#2166ac" font-family="Verdana" font-size="12">0,N</text>
<g id="association-USES">
	<path d="M 67 204 a 14 14 90 0 1 14 14 V 229 h -48 V 218 a 14 14 90 0 1 14 -14" fill="#f4a582" stroke="#f4a582" stroke-width="0"/>
	<path d="M 81 229.0 v 11 a 14 14 90 0 1 -14 14 H 47 a 14 14 90 0 1 -14 -14 V 229.0 H 48" fill="#fddbc7" stroke="#fddbc7" stroke-width="0"/>
	<rect x="33" y="204" width="48" height="50" fill="none" rx="14" stroke="#d6604d" stroke-width="2"/>
	<line x1="33" y1="229" x2="81" y2="229" stroke="#d6604d" stroke-width="1"/>
	<text x="40" y="221.7" fill="#000000" font-family="Verdana" font-size="12">USES</text>
</g>

<!-- Association BELONGS TO -->
<line x1="291" y1="415" x2="414" y2="415" stroke="#d6604d" stroke-width="2"/>
<text x="339" y="432.0" fill="#2166ac" font-family="Verdana" font-size="12">1,N</text>
<line x1="414" y1="229" x2="414" y2="415" stroke="#d6604d" stroke-width="2"/>
<text x="419.0" y="288" fill="#2166ac" font-family="Verdana" font-size="12">0,N</text>
<g id="association-BELONGS TO">
	<path d="M 448 390 a 14 14 90 0 1 14 14 V 415 h -96 V 404 a 14 14 90 0 1 14 -14" fill="#f4a582" stroke="#f4a582" stroke-width="0"/>
	<path d="M 462 415.0 v 11 a 14 14 90 0 1 -14 14 H 380 a 14 14 90 0 1 -14 -14 V 415.0 H 96" fill="#fddbc7" stroke="#fddbc7" stroke-width="0"/>
	<rect x="366" y="390" width="96" height="50" fill="none" rx="14" stroke="#d6604d" stroke-width="2"/>
	<line x1="366" y1="415" x2="462" y2="415" stroke="#d6604d" stroke-width="1"/>
	<text x="373" y="407.7" fill="#000000" font-family="Verdana" font-size="12">BELONGS TO</text>
</g>

<!-- Association USES3 -->
<line x1="161" y1="229" x2="161" y2="43" stroke="#d6604d" stroke-width="2"/>
<text x="166.0" y="94" fill="#2166ac" font-family="Verdana" font-size="12">0,N</text>
<line x1="57" y1="43" x2="161" y2="43" stroke="#d6604d" stroke-width="2"/>
<text x="110" y="60.0" fill="#2166ac" font-family="Verdana" font-size="12">0,N</text>
<g id="association-USES3">
	<path d="M 171 18 a 14 14 90 0 1 14 14 V 43 h -48 V 32 a 14 14 90 0 1 14 -14" fill="#f4a582" stroke="#f4a582" stroke-width="0"/>
	<path d="M 185 43.0 v 11 a 14 14 90 0 1 -14 14 H 151 a 14 14 90 0 1 -14 -14 V 43.0 H 48" fill="#fddbc7" stroke="#fddbc7" stroke-width="0"/>
	<rect x="137" y="18" width="48" height="50" fill="none" rx="14" stroke="#d6604d" stroke-width="2"/>
	<line x1="137" y1="43" x2="185" y2="43" stroke="#d6604d" stroke-width="1"/>
	<text x="144" y="35.7" fill="#000000" font-family="Verdana" font-size="12">USES</text>
</g>

<!-- Association USES2 -->
<line x1="161" y1="229" x2="291" y2="229" stroke="#d6604d" stroke-width="2"/>
<text x="210" y="246.0" fill="#2166ac" font-family="Verdana" font-size="12">0,N</text>
<line x1="291" y1="43" x2="291" y2="229" stroke="#d6604d" stroke-width="2"/>
<text x="296.0" y="94" fill="#2166ac" font-family="Verdana" font-size="12">0,N</text>
<g id="association-USES2">
	<path d="M 301 204 a 14 14 90 0 1 14 14 V 229 h -48 V 218 a 14 14 90 0 1 14 -14" fill="#f4a582" stroke="#f4a582" stroke-width="0"/>
	<path d="M 315 229.0 v 11 a 14 14 90 0 1 -14 14 H 281 a 14 14 90 0 1 -14 -14 V 229.0 H 48" fill="#fddbc7" stroke="#fddbc7" stroke-width="0"/>
	<rect x="267" y="204" width="48" height="50" fill="none" rx="14" stroke="#d6604d" stroke-width="2"/>
	<line x1="267" y1="229" x2="315" y2="229" stroke="#d6604d" stroke-width="1"/>
	<text x="274" y="221.7" fill="#000000" font-family="Verdana" font-size="12">USES</text>
</g>

<!-- Entity CATEGORY -->
<g id="entity-CATEGORY">
	<g id="frame-CATEGORY">
		<rect x="366" y="187" width="96" height="25" fill="#92c5de" stroke="#92c5de" stroke-width="0"/>
		<rect x="366" y="212.0" width="96" height="59" fill="#d1e5f0" stroke="#d1e5f0" stroke-width="0"/>
		<rect x="366" y="187" width="96" height="84" fill="none" stroke="#4393c3" stroke-width="2"/>
		<line x1="366" y1="212" x2="462" y2="212" stroke="#4393c3" stroke-width="1"/>
	</g>
	<text x="380" y="204.7" fill="#000000" font-family="Verdana" font-size="12">CATEGORY</text>
	<text x="371" y="229.8" fill="#000000" font-family="Verdana" font-size="12">category code</text>
	<line x1="371" y1="232" x2="457" y2="232" stroke="#000000" stroke-width="1"/>
	<text x="371" y="246.8" fill="#000000" font-family="Verdana" font-size="12">name</text>
	<text x="371" y="263.8" fill="#000000" font-family="Verdana" font-size="12">description</text>
</g>

<!-- Entity OPERATING SYSTEM -->
<g id="entity-OPERATING SYSTEM">
	<g id="frame-OPERATING SYSTEM">
		<rect x="217" y="9" width="148" height="25" fill="#92c5de" stroke="#92c5de" stroke-width="0"/>
		<rect x="217" y="34.0" width="148" height="43" fill="#d1e5f0" stroke="#d1e5f0" stroke-width="0"/>
		<rect x="217" y="9" width="148" height="68" fill="none" stroke="#4393c3" stroke-width="2"/>
		<line x1="217" y1="34" x2="365" y2="34" stroke="#4393c3" stroke-width="1"/>
	</g>
	<text x="228" y="26.7" fill="#000000" font-family="Verdana" font-size="12">OPERATING SYSTEM</text>
	<text x="222" y="51.8" fill="#000000" font-family="Verdana" font-size="12">operating system code</text>
	<line x1="222" y1="54" x2="360" y2="54" stroke="#000000" stroke-width="1"/>
	<text x="222" y="68.8" fill="#000000" font-family="Verdana" font-size="12">name</text>
</g>

<!-- Entity PROJECT -->
<g id="entity-PROJECT">
	<g id="frame-PROJECT">
		<rect x="248" y="339" width="86" height="25" fill="#92c5de" stroke="#92c5de" stroke-width="0"/>
		<rect x="248" y="364.0" width="86" height="127" fill="#d1e5f0" stroke="#d1e5f0" stroke-width="0"/>
		<rect x="248" y="339" width="86" height="152" fill="none" stroke="#4393c3" stroke-width="2"/>
		<line x1="248" y1="364" x2="334" y2="364" stroke="#4393c3" stroke-width="1"/>
	</g>
	<text x="263" y="356.7" fill="#000000" font-family="Verdana" font-size="12">PROJECT</text>
	<text x="253" y="381.7" fill="#000000" font-family="Verdana" font-size="12">project code</text>
	<line x1="253" y1="384" x2="329" y2="384" stroke="#000000" stroke-width="1"/>
	<text x="253" y="398.7" fill="#000000" font-family="Verdana" font-size="12">title</text>
	<text x="253" y="415.8" fill="#000000" font-family="Verdana" font-size="12">summary</text>
	<text x="253" y="432.8" fill="#000000" font-family="Verdana" font-size="12">description</text>
	<text x="253" y="449.8" fill="#000000" font-family="Verdana" font-size="12">github</text>
	<text x="253" y="466.8" fill="#000000" font-family="Verdana" font-size="12">url</text>
	<text x="253" y="483.8" fill="#000000" font-family="Verdana" font-size="12">image</text>
</g>

<!-- Entity USER -->
<g id="entity-USER">
	<g id="frame-USER">
		<rect x="117" y="102" width="88" height="25" fill="#92c5de" stroke="#92c5de" stroke-width="0"/>
		<rect x="117" y="127.0" width="88" height="229" fill="#d1e5f0" stroke="#d1e5f0" stroke-width="0"/>
		<rect x="117" y="102" width="88" height="254" fill="none" stroke="#4393c3" stroke-width="2"/>
		<line x1="117" y1="127" x2="205" y2="127" stroke="#4393c3" stroke-width="1"/>
	</g>
	<text x="144" y="119.7" fill="#000000" font-family="Verdana" font-size="12">USER</text>
	<text x="122" y="144.7" fill="#000000" font-family="Verdana" font-size="12">user code</text>
	<line x1="122" y1="147" x2="182" y2="147" stroke="#000000" stroke-width="1"/>
	<text x="122" y="161.7" fill="#000000" font-family="Verdana" font-size="12">username</text>
	<text x="122" y="178.7" fill="#000000" font-family="Verdana" font-size="12">firstname</text>
	<text x="122" y="195.7" fill="#000000" font-family="Verdana" font-size="12">lastname</text>
	<text x="122" y="212.7" fill="#000000" font-family="Verdana" font-size="12">age</text>
	<text x="122" y="229.8" fill="#000000" font-family="Verdana" font-size="12">profil</text>
	<text x="122" y="246.8" fill="#000000" font-family="Verdana" font-size="12">email</text>
	<text x="122" y="263.8" fill="#000000" font-family="Verdana" font-size="12">github</text>
	<text x="122" y="280.8" fill="#000000" font-family="Verdana" font-size="12">twitter</text>
	<text x="122" y="297.8" fill="#000000" font-family="Verdana" font-size="12">linkedin</text>
	<text x="122" y="314.8" fill="#000000" font-family="Verdana" font-size="12">password</text>
	<text x="122" y="331.8" fill="#000000" font-family="Verdana" font-size="12">presentation</text>
	<text x="122" y="348.8" fill="#000000" font-family="Verdana" font-size="12">image</text>
</g>

<!-- Entity SKILL -->
<g id="entity-SKILL">
	<g id="frame-SKILL">
		<rect x="23" y="381" width="68" height="25" fill="#92c5de" stroke="#92c5de" stroke-width="0"/>
		<rect x="23" y="406.0" width="68" height="43" fill="#d1e5f0" stroke="#d1e5f0" stroke-width="0"/>
		<rect x="23" y="381" width="68" height="68" fill="none" stroke="#4393c3" stroke-width="2"/>
		<line x1="23" y1="406" x2="91" y2="406" stroke="#4393c3" stroke-width="1"/>
	</g>
	<text x="39" y="398.7" fill="#000000" font-family="Verdana" font-size="12">SKILL</text>
	<text x="28" y="423.8" fill="#000000" font-family="Verdana" font-size="12">skill code</text>
	<line x1="28" y1="426" x2="85" y2="426" stroke="#000000" stroke-width="1"/>
	<text x="28" y="440.8" fill="#000000" font-family="Verdana" font-size="12">name</text>
</g>

<!-- Entity SOFTWARE -->
<g id="entity-SOFTWARE">
	<g id="frame-SOFTWARE">
		<rect x="9" y="9" width="96" height="25" fill="#92c5de" stroke="#92c5de" stroke-width="0"/>
		<rect x="9" y="34.0" width="96" height="43" fill="#d1e5f0" stroke="#d1e5f0" stroke-width="0"/>
		<rect x="9" y="9" width="96" height="68" fill="none" stroke="#4393c3" stroke-width="2"/>
		<line x1="9" y1="34" x2="105" y2="34" stroke="#4393c3" stroke-width="1"/>
	</g>
	<text x="22" y="26.7" fill="#000000" font-family="Verdana" font-size="12">SOFTWARE</text>
	<text x="14" y="51.8" fill="#000000" font-family="Verdana" font-size="12">software code</text>
	<line x1="14" y1="54" x2="99" y2="54" stroke="#000000" stroke-width="1"/>
	<text x="14" y="68.8" fill="#000000" font-family="Verdana" font-size="12">name</text>
</g>
</svg>