<?xml version="1.0" standalone="no"?>
<!DOCTYPE svg PUBLIC "-//W3C//DTD SVG 1.1//EN"
"http://www.w3.org/Graphics/SVG/1.1/DTD/svg11.dtd">

<svg width="636" height="457" view_box="0 0 636 457"
xmlns="http://www.w3.org/2000/svg"
xmlns:link="http://www.w3.org/1999/xlink">\n\n<desc>Généré par Mocodo 2.3.7 le Thu, 04 Nov 2021 08:12:19</desc>

<rect id="frame" x="0" y="0" width="636" height="457" fill="#f7f7f7" stroke="none" stroke-width="0"/>

<!-- Association BELONGS TO -->
<line x1="318" y1="380" x2="189" y2="380" stroke="#d6604d" stroke-width="2"/>
<text x="242" y="397.0" fill="#2166ac" font-family="Verdana" font-size="12">1,N</text>
<line x1="189" y1="194" x2="189" y2="380" stroke="#d6604d" stroke-width="2"/>
<text x="194.0" y="253" fill="#2166ac" font-family="Verdana" font-size="12">0,N</text>
<g id="association-BELONGS TO">
	<path d="M 223 355 a 14 14 90 0 1 14 14 V 380 h -96 V 369 a 14 14 90 0 1 14 -14" fill="#f4a582" stroke="#f4a582" stroke-width="0"/>
	<path d="M 237 380.0 v 11 a 14 14 90 0 1 -14 14 H 155 a 14 14 90 0 1 -14 -14 V 380.0 H 96" fill="#fddbc7" stroke="#fddbc7" stroke-width="0"/>
	<rect x="141" y="355" width="96" height="50" fill="none" rx="14" stroke="#d6604d" stroke-width="2"/>
	<line x1="141" y1="380" x2="237" y2="380" stroke="#d6604d" stroke-width="1"/>
	<text x="148" y="372.7" fill="#000000" font-family="Verdana" font-size="12">BELONGS TO</text>
</g>

<!-- Association USES3 -->
<line x1="423" y1="194" x2="553" y2="194" stroke="#d6604d" stroke-width="2"/>
<text x="463" y="211.0" fill="#2166ac" font-family="Verdana" font-size="12">0,N</text>
<line x1="553" y1="51" x2="553" y2="194" stroke="#d6604d" stroke-width="2"/>
<text x="558.0" y="102" fill="#2166ac" font-family="Verdana" font-size="12">0,N</text>
<g id="association-USES3">
	<path d="M 563 169 a 14 14 90 0 1 14 14 V 194 h -48 V 183 a 14 14 90 0 1 14 -14" fill="#f4a582" stroke="#f4a582" stroke-width="0"/>
	<path d="M 577 194.0 v 11 a 14 14 90 0 1 -14 14 H 543 a 14 14 90 0 1 -14 -14 V 194.0 H 48" fill="#fddbc7" stroke="#fddbc7" stroke-width="0"/>
	<rect x="529" y="169" width="48" height="50" fill="none" rx="14" stroke="#d6604d" stroke-width="2"/>
	<line x1="529" y1="194" x2="577" y2="194" stroke="#d6604d" stroke-width="1"/>
	<text x="536" y="186.7" fill="#000000" font-family="Verdana" font-size="12">USES</text>
</g>

<!-- Association USES2 -->
<line x1="423" y1="194" x2="423" y2="380" stroke="#d6604d" stroke-width="2"/>
<text x="428.0" y="304" fill="#2166ac" font-family="Verdana" font-size="12">0,N</text>
<line x1="553" y1="380" x2="423" y2="380" stroke="#d6604d" stroke-width="2"/>
<text x="452" y="397.0" fill="#2166ac" font-family="Verdana" font-size="12">0,N</text>
<g id="association-USES2">
	<path d="M 433 355 a 14 14 90 0 1 14 14 V 380 h -48 V 369 a 14 14 90 0 1 14 -14" fill="#f4a582" stroke="#f4a582" stroke-width="0"/>
	<path d="M 447 380.0 v 11 a 14 14 90 0 1 -14 14 H 413 a 14 14 90 0 1 -14 -14 V 380.0 H 48" fill="#fddbc7" stroke="#fddbc7" stroke-width="0"/>
	<rect x="399" y="355" width="48" height="50" fill="none" rx="14" stroke="#d6604d" stroke-width="2"/>
	<line x1="399" y1="380" x2="447" y2="380" stroke="#d6604d" stroke-width="1"/>
	<text x="406" y="372.7" fill="#000000" font-family="Verdana" font-size="12">USES</text>
</g>

<!-- Association MADE BY -->
<line x1="318" y1="380" x2="318" y2="194" stroke="#d6604d" stroke-width="2"/>
<text x="323.0" y="304" fill="#2166ac" font-family="Verdana" font-size="12">1,1</text>
<line x1="423" y1="194" x2="318" y2="194" stroke="#d6604d" stroke-width="2"/>
<text x="361" y="211.0" fill="#2166ac" font-family="Verdana" font-size="12">0,N</text>
<g id="association-MADE BY">
	<path d="M 339 169 a 14 14 90 0 1 14 14 V 194 h -70 V 183 a 14 14 90 0 1 14 -14" fill="#f4a582" stroke="#f4a582" stroke-width="0"/>
	<path d="M 353 194.0 v 11 a 14 14 90 0 1 -14 14 H 297 a 14 14 90 0 1 -14 -14 V 194.0 H 70" fill="#fddbc7" stroke="#fddbc7" stroke-width="0"/>
	<rect x="283" y="169" width="70" height="50" fill="none" rx="14" stroke="#d6604d" stroke-width="2"/>
	<line x1="283" y1="194" x2="353" y2="194" stroke="#d6604d" stroke-width="1"/>
	<text x="290" y="186.7" fill="#000000" font-family="Verdana" font-size="12">MADE BY</text>
</g>

<!-- Association USES -->
<line x1="423" y1="194" x2="423" y2="51" stroke="#d6604d" stroke-width="2"/>
<text x="428.0" y="93" fill="#2166ac" font-family="Verdana" font-size="12">0,N</text>
<line x1="318" y1="51" x2="423" y2="51" stroke="#d6604d" stroke-width="2"/>
<text x="357" y="68.0" fill="#2166ac" font-family="Verdana" font-size="12">0,N</text>
<g id="association-USES">
	<path d="M 433 26 a 14 14 90 0 1 14 14 V 51 h -48 V 40 a 14 14 90 0 1 14 -14" fill="#f4a582" stroke="#f4a582" stroke-width="0"/>
	<path d="M 447 51.0 v 11 a 14 14 90 0 1 -14 14 H 413 a 14 14 90 0 1 -14 -14 V 51.0 H 48" fill="#fddbc7" stroke="#fddbc7" stroke-width="0"/>
	<rect x="399" y="26" width="48" height="50" fill="none" rx="14" stroke="#d6604d" stroke-width="2"/>
	<line x1="399" y1="51" x2="447" y2="51" stroke="#d6604d" stroke-width="1"/>
	<text x="406" y="43.7" fill="#000000" font-family="Verdana" font-size="12">USES</text>
</g>

<!-- Association BELONGS TO1 -->
<line x1="59" y1="51" x2="189" y2="51" stroke="#d6604d" stroke-width="2"/>
<text x="99" y="68.0" fill="#2166ac" font-family="Verdana" font-size="12">1,N</text>
<line x1="189" y1="194" x2="189" y2="51" stroke="#d6604d" stroke-width="2"/>
<text x="194.0" y="144" fill="#2166ac" font-family="Verdana" font-size="12">0,N</text>
<g id="association-BELONGS TO1">
	<path d="M 223 26 a 14 14 90 0 1 14 14 V 51 h -96 V 40 a 14 14 90 0 1 14 -14" fill="#f4a582" stroke="#f4a582" stroke-width="0"/>
	<path d="M 237 51.0 v 11 a 14 14 90 0 1 -14 14 H 155 a 14 14 90 0 1 -14 -14 V 51.0 H 96" fill="#fddbc7" stroke="#fddbc7" stroke-width="0"/>
	<rect x="141" y="26" width="96" height="50" fill="none" rx="14" stroke="#d6604d" stroke-width="2"/>
	<line x1="141" y1="51" x2="237" y2="51" stroke="#d6604d" stroke-width="1"/>
	<text x="148" y="43.7" fill="#000000" font-family="Verdana" font-size="12">BELONGS TO</text>
</g>

<!-- Association HAS2 -->
<line x1="59" y1="51" x2="59" y2="194" stroke="#d6604d" stroke-width="2"/>
<text x="64.0" y="110" fill="#2166ac" font-family="Verdana" font-size="12">0,N</text>
<line x1="59" y1="380" x2="59" y2="194" stroke="#d6604d" stroke-width="2"/>
<text x="64.0" y="330" fill="#2166ac" font-family="Verdana" font-size="12">1,1</text>
<g id="association-HAS2">
	<path d="M 65 169 a 14 14 90 0 1 14 14 V 194 h -40 V 183 a 14 14 90 0 1 14 -14" fill="#f4a582" stroke="#f4a582" stroke-width="0"/>
	<path d="M 79 194.0 v 11 a 14 14 90 0 1 -14 14 H 53 a 14 14 90 0 1 -14 -14 V 194.0 H 40" fill="#fddbc7" stroke="#fddbc7" stroke-width="0"/>
	<rect x="39" y="169" width="40" height="50" fill="none" rx="14" stroke="#d6604d" stroke-width="2"/>
	<line x1="39" y1="194" x2="79" y2="194" stroke="#d6604d" stroke-width="1"/>
	<text x="46" y="186.7" fill="#000000" font-family="Verdana" font-size="12">HAS</text>
</g>

<!-- Entity CATEGORY -->
<g id="entity-CATEGORY">
	<g id="frame-CATEGORY">
		<rect x="141" y="152" width="96" height="25" fill="#92c5de" stroke="#92c5de" stroke-width="0"/>
		<rect x="141" y="177.0" width="96" height="59" fill="#d1e5f0" stroke="#d1e5f0" stroke-width="0"/>
		<rect x="141" y="152" width="96" height="84" fill="none" stroke="#4393c3" stroke-width="2"/>
		<line x1="141" y1="177" x2="237" y2="177" stroke="#4393c3" stroke-width="1"/>
	</g>
	<text x="155" y="169.7" fill="#000000" font-family="Verdana" font-size="12">CATEGORY</text>
	<text x="146" y="194.8" fill="#000000" font-family="Verdana" font-size="12">category code</text>
	<line x1="146" y1="197" x2="232" y2="197" stroke="#000000" stroke-width="1"/>
	<text x="146" y="211.8" fill="#000000" font-family="Verdana" font-size="12">name</text>
	<text x="146" y="228.8" fill="#000000" font-family="Verdana" font-size="12">description</text>
</g>

<!-- Entity COMMENT -->
<g id="entity-COMMENT">
	<g id="frame-COMMENT">
		<rect x="9" y="338" width="100" height="25" fill="#92c5de" stroke="#92c5de" stroke-width="0"/>
		<rect x="9" y="363.0" width="100" height="59" fill="#d1e5f0" stroke="#d1e5f0" stroke-width="0"/>
		<rect x="9" y="338" width="100" height="84" fill="none" stroke="#4393c3" stroke-width="2"/>
		<line x1="9" y1="363" x2="109" y2="363" stroke="#4393c3" stroke-width="1"/>
	</g>
	<text x="27" y="355.7" fill="#000000" font-family="Verdana" font-size="12">COMMENT</text>
	<text x="14" y="380.8" fill="#000000" font-family="Verdana" font-size="12">comment code</text>
	<line x1="14" y1="383" x2="104" y2="383" stroke="#000000" stroke-width="1"/>
	<text x="14" y="397.8" fill="#000000" font-family="Verdana" font-size="12">author</text>
	<text x="14" y="414.8" fill="#000000" font-family="Verdana" font-size="12">content</text>
</g>

<!-- Entity OPERATING SYSTEM -->
<g id="entity-OPERATING SYSTEM">
	<g id="frame-OPERATING SYSTEM">
		<rect x="479" y="346" width="148" height="25" fill="#92c5de" stroke="#92c5de" stroke-width="0"/>
		<rect x="479" y="371.0" width="148" height="43" fill="#d1e5f0" stroke="#d1e5f0" stroke-width="0"/>
		<rect x="479" y="346" width="148" height="68" fill="none" stroke="#4393c3" stroke-width="2"/>
		<line x1="479" y1="371" x2="627" y2="371" stroke="#4393c3" stroke-width="1"/>
	</g>
	<text x="490" y="363.7" fill="#000000" font-family="Verdana" font-size="12">OPERATING SYSTEM</text>
	<text x="484" y="388.8" fill="#000000" font-family="Verdana" font-size="12">operating system code</text>
	<line x1="484" y1="391" x2="622" y2="391" stroke="#000000" stroke-width="1"/>
	<text x="484" y="405.8" fill="#000000" font-family="Verdana" font-size="12">name</text>
</g>

<!-- Entity PROJECT -->
<g id="entity-PROJECT">
	<g id="frame-PROJECT">
		<rect x="269" y="312" width="98" height="25" fill="#92c5de" stroke="#92c5de" stroke-width="0"/>
		<rect x="269" y="337.0" width="98" height="111" fill="#d1e5f0" stroke="#d1e5f0" stroke-width="0"/>
		<rect x="269" y="312" width="98" height="136" fill="none" stroke="#4393c3" stroke-width="2"/>
		<line x1="269" y1="337" x2="367" y2="337" stroke="#4393c3" stroke-width="1"/>
	</g>
	<text x="290" y="329.7" fill="#000000" font-family="Verdana" font-size="12">PROJECT</text>
	<text x="274" y="354.7" fill="#000000" font-family="Verdana" font-size="12">project code</text>
	<line x1="274" y1="357" x2="350" y2="357" stroke="#000000" stroke-width="1"/>
	<text x="274" y="371.7" fill="#000000" font-family="Verdana" font-size="12">title</text>
	<text x="274" y="388.8" fill="#000000" font-family="Verdana" font-size="12">summary</text>
	<text x="274" y="405.8" fill="#000000" font-family="Verdana" font-size="12">description</text>
	<text x="274" y="422.8" fill="#000000" font-family="Verdana" font-size="12">github</text>
	<text x="274" y="439.8" fill="#000000" font-family="Verdana" font-size="12">demonstration</text>
</g>

<!-- Entity USER -->
<g id="entity-USER">
	<g id="frame-USER">
		<rect x="388" y="101" width="70" height="25" fill="#92c5de" stroke="#92c5de" stroke-width="0"/>
		<rect x="388" y="126.0" width="70" height="161" fill="#d1e5f0" stroke="#d1e5f0" stroke-width="0"/>
		<rect x="388" y="101" width="70" height="186" fill="none" stroke="#4393c3" stroke-width="2"/>
		<line x1="388" y1="126" x2="458" y2="126" stroke="#4393c3" stroke-width="1"/>
	</g>
	<text x="406" y="118.7" fill="#000000" font-family="Verdana" font-size="12">USER</text>
	<text x="393" y="143.7" fill="#000000" font-family="Verdana" font-size="12">user code</text>
	<line x1="393" y1="146" x2="453" y2="146" stroke="#000000" stroke-width="1"/>
	<text x="393" y="160.7" fill="#000000" font-family="Verdana" font-size="12">firstname</text>
	<text x="393" y="177.7" fill="#000000" font-family="Verdana" font-size="12">lastname</text>
	<text x="393" y="194.8" fill="#000000" font-family="Verdana" font-size="12">age</text>
	<text x="393" y="211.8" fill="#000000" font-family="Verdana" font-size="12">profil</text>
	<text x="393" y="228.8" fill="#000000" font-family="Verdana" font-size="12">email</text>
	<text x="393" y="245.8" fill="#000000" font-family="Verdana" font-size="12">github</text>
	<text x="393" y="262.8" fill="#000000" font-family="Verdana" font-size="12">twitter</text>
	<text x="393" y="279.8" fill="#000000" font-family="Verdana" font-size="12">linkedin</text>
</g>

<!-- Entity POST -->
<g id="entity-POST">
	<g id="frame-POST">
		<rect x="24" y="9" width="70" height="25" fill="#92c5de" stroke="#92c5de" stroke-width="0"/>
		<rect x="24" y="34.0" width="70" height="59" fill="#d1e5f0" stroke="#d1e5f0" stroke-width="0"/>
		<rect x="24" y="9" width="70" height="84" fill="none" stroke="#4393c3" stroke-width="2"/>
		<line x1="24" y1="34" x2="94" y2="34" stroke="#4393c3" stroke-width="1"/>
	</g>
	<text x="42" y="26.7" fill="#000000" font-family="Verdana" font-size="12">POST</text>
	<text x="29" y="51.8" fill="#000000" font-family="Verdana" font-size="12">post code</text>
	<line x1="29" y1="54" x2="88" y2="54" stroke="#000000" stroke-width="1"/>
	<text x="29" y="68.8" fill="#000000" font-family="Verdana" font-size="12">title</text>
	<text x="29" y="85.8" fill="#000000" font-family="Verdana" font-size="12">content</text>
</g>

<!-- Entity SKILL -->
<g id="entity-SKILL">
	<g id="frame-SKILL">
		<rect x="284" y="17" width="68" height="25" fill="#92c5de" stroke="#92c5de" stroke-width="0"/>
		<rect x="284" y="42.0" width="68" height="43" fill="#d1e5f0" stroke="#d1e5f0" stroke-width="0"/>
		<rect x="284" y="17" width="68" height="68" fill="none" stroke="#4393c3" stroke-width="2"/>
		<line x1="284" y1="42" x2="352" y2="42" stroke="#4393c3" stroke-width="1"/>
	</g>
	<text x="300" y="34.7" fill="#000000" font-family="Verdana" font-size="12">SKILL</text>
	<text x="289" y="59.8" fill="#000000" font-family="Verdana" font-size="12">skill code</text>
	<line x1="289" y1="62" x2="346" y2="62" stroke="#000000" stroke-width="1"/>
	<text x="289" y="76.8" fill="#000000" font-family="Verdana" font-size="12">name</text>
</g>

<!-- Entity SOFTWARE -->
<g id="entity-SOFTWARE">
	<g id="frame-SOFTWARE">
		<rect x="505" y="17" width="96" height="25" fill="#92c5de" stroke="#92c5de" stroke-width="0"/>
		<rect x="505" y="42.0" width="96" height="43" fill="#d1e5f0" stroke="#d1e5f0" stroke-width="0"/>
		<rect x="505" y="17" width="96" height="68" fill="none" stroke="#4393c3" stroke-width="2"/>
		<line x1="505" y1="42" x2="601" y2="42" stroke="#4393c3" stroke-width="1"/>
	</g>
	<text x="518" y="34.7" fill="#000000" font-family="Verdana" font-size="12">SOFTWARE</text>
	<text x="510" y="59.8" fill="#000000" font-family="Verdana" font-size="12">software code</text>
	<line x1="510" y1="62" x2="595" y2="62" stroke="#000000" stroke-width="1"/>
	<text x="510" y="76.8" fill="#000000" font-family="Verdana" font-size="12">name</text>
</g>
</svg>