<?xml version="1.0" standalone="no"?>
<!DOCTYPE svg PUBLIC "-//W3C//DTD SVG 1.1//EN"
"http://www.w3.org/Graphics/SVG/1.1/DTD/svg11.dtd">

<svg width="346" height="414" view_box="0 0 346 414"
xmlns="http://www.w3.org/2000/svg"
xmlns:link="http://www.w3.org/1999/xlink">\n\n<desc>Généré par Mocodo 2.3.7 le Thu, 28 Oct 2021 13:39:22</desc>

<rect id="frame" x="0" y="0" width="346" height="414" fill="#f7f7f7" stroke="none" stroke-width="0"/>

<!-- Association MADE BY -->
<line x1="186" y1="169" x2="302" y2="169" stroke="#d6604d" stroke-width="2"/>
<text x="240" y="186.0" fill="#2166ac" font-family="Verdana" font-size="12">1,1</text>
<line x1="302" y1="312" x2="302" y2="169" stroke="#d6604d" stroke-width="2"/>
<text x="307.0" y="211" fill="#2166ac" font-family="Verdana" font-size="12">0,N</text>
<g id="association-MADE BY">
	<path d="M 323 144 a 14 14 90 0 1 14 14 V 169 h -70 V 158 a 14 14 90 0 1 14 -14" fill="#f4a582" stroke="#f4a582" stroke-width="0"/>
	<path d="M 337 169.0 v 11 a 14 14 90 0 1 -14 14 H 281 a 14 14 90 0 1 -14 -14 V 169.0 H 70" fill="#fddbc7" stroke="#fddbc7" stroke-width="0"/>
	<rect x="267" y="144" width="70" height="50" fill="none" rx="14" stroke="#d6604d" stroke-width="2"/>
	<line x1="267" y1="169" x2="337" y2="169" stroke="#d6604d" stroke-width="1"/>
	<text x="274" y="161.7" fill="#000000" font-family="Verdana" font-size="12">MADE BY</text>
</g>

<!-- Association HAS -->
<line x1="302" y1="312" x2="186" y2="312" stroke="#d6604d" stroke-width="2"/>
<text x="240" y="329.0" fill="#2166ac" font-family="Verdana" font-size="12">0,N</text>
<line x1="57" y1="312" x2="186" y2="312" stroke="#d6604d" stroke-width="2"/>
<text x="96" y="329.0" fill="#2166ac" font-family="Verdana" font-size="12">0,N</text>
<g id="association-HAS">
	<path d="M 192 287 a 14 14 90 0 1 14 14 V 312 h -40 V 301 a 14 14 90 0 1 14 -14" fill="#f4a582" stroke="#f4a582" stroke-width="0"/>
	<path d="M 206 312.0 v 11 a 14 14 90 0 1 -14 14 H 180 a 14 14 90 0 1 -14 -14 V 312.0 H 40" fill="#fddbc7" stroke="#fddbc7" stroke-width="0"/>
	<rect x="166" y="287" width="40" height="50" fill="none" rx="14" stroke="#d6604d" stroke-width="2"/>
	<line x1="166" y1="312" x2="206" y2="312" stroke="#d6604d" stroke-width="1"/>
	<text x="173" y="304.7" fill="#000000" font-family="Verdana" font-size="12">HAS</text>
</g>

<!-- Association BELONGS TO -->
<line x1="186" y1="169" x2="57" y2="169" stroke="#d6604d" stroke-width="2"/>
<text x="110" y="186.0" fill="#2166ac" font-family="Verdana" font-size="12">1,N</text>
<line x1="57" y1="51" x2="57" y2="169" stroke="#d6604d" stroke-width="2"/>
<text x="62.0" y="110" fill="#2166ac" font-family="Verdana" font-size="12">0,N</text>
<g id="association-BELONGS TO">
	<path d="M 91 144 a 14 14 90 0 1 14 14 V 169 h -96 V 158 a 14 14 90 0 1 14 -14" fill="#f4a582" stroke="#f4a582" stroke-width="0"/>
	<path d="M 105 169.0 v 11 a 14 14 90 0 1 -14 14 H 23 a 14 14 90 0 1 -14 -14 V 169.0 H 96" fill="#fddbc7" stroke="#fddbc7" stroke-width="0"/>
	<rect x="9" y="144" width="96" height="50" fill="none" rx="14" stroke="#d6604d" stroke-width="2"/>
	<line x1="9" y1="169" x2="105" y2="169" stroke="#d6604d" stroke-width="1"/>
	<text x="16" y="161.7" fill="#000000" font-family="Verdana" font-size="12">BELONGS TO</text>
</g>

<!-- Association BELONGS TO1 -->
<line x1="302" y1="51" x2="186" y2="51" stroke="#d6604d" stroke-width="2"/>
<text x="240" y="68.0" fill="#2166ac" font-family="Verdana" font-size="12">1,N</text>
<line x1="57" y1="51" x2="186" y2="51" stroke="#d6604d" stroke-width="2"/>
<text x="110" y="68.0" fill="#2166ac" font-family="Verdana" font-size="12">0,N</text>
<g id="association-BELONGS TO1">
	<path d="M 220 26 a 14 14 90 0 1 14 14 V 51 h -96 V 40 a 14 14 90 0 1 14 -14" fill="#f4a582" stroke="#f4a582" stroke-width="0"/>
	<path d="M 234 51.0 v 11 a 14 14 90 0 1 -14 14 H 152 a 14 14 90 0 1 -14 -14 V 51.0 H 96" fill="#fddbc7" stroke="#fddbc7" stroke-width="0"/>
	<rect x="138" y="26" width="96" height="50" fill="none" rx="14" stroke="#d6604d" stroke-width="2"/>
	<line x1="138" y1="51" x2="234" y2="51" stroke="#d6604d" stroke-width="1"/>
	<text x="145" y="43.7" fill="#000000" font-family="Verdana" font-size="12">BELONGS TO</text>
</g>

<!-- Entity CATEGORY -->
<g id="entity-CATEGORY">
	<g id="frame-CATEGORY">
		<rect x="9" y="9" width="96" height="25" fill="#92c5de" stroke="#92c5de" stroke-width="0"/>
		<rect x="9" y="34.0" width="96" height="59" fill="#d1e5f0" stroke="#d1e5f0" stroke-width="0"/>
		<rect x="9" y="9" width="96" height="84" fill="none" stroke="#4393c3" stroke-width="2"/>
		<line x1="9" y1="34" x2="105" y2="34" stroke="#4393c3" stroke-width="1"/>
	</g>
	<text x="23" y="26.7" fill="#000000" font-family="Verdana" font-size="12">CATEGORY</text>
	<text x="14" y="51.8" fill="#000000" font-family="Verdana" font-size="12">category code</text>
	<line x1="14" y1="54" x2="100" y2="54" stroke="#000000" stroke-width="1"/>
	<text x="14" y="68.8" fill="#000000" font-family="Verdana" font-size="12">name</text>
	<text x="14" y="85.8" fill="#000000" font-family="Verdana" font-size="12">description</text>
</g>

<!-- Entity PROJECT -->
<g id="entity-PROJECT">
	<g id="frame-PROJECT">
		<rect x="137" y="101" width="98" height="25" fill="#92c5de" stroke="#92c5de" stroke-width="0"/>
		<rect x="137" y="126.0" width="98" height="111" fill="#d1e5f0" stroke="#d1e5f0" stroke-width="0"/>
		<rect x="137" y="101" width="98" height="136" fill="none" stroke="#4393c3" stroke-width="2"/>
		<line x1="137" y1="126" x2="235" y2="126" stroke="#4393c3" stroke-width="1"/>
	</g>
	<text x="158" y="118.7" fill="#000000" font-family="Verdana" font-size="12">PROJECT</text>
	<text x="142" y="143.7" fill="#000000" font-family="Verdana" font-size="12">project code</text>
	<line x1="142" y1="146" x2="218" y2="146" stroke="#000000" stroke-width="1"/>
	<text x="142" y="160.7" fill="#000000" font-family="Verdana" font-size="12">title</text>
	<text x="142" y="177.8" fill="#000000" font-family="Verdana" font-size="12">summary</text>
	<text x="142" y="194.8" fill="#000000" font-family="Verdana" font-size="12">description</text>
	<text x="142" y="211.8" fill="#000000" font-family="Verdana" font-size="12">github</text>
	<text x="142" y="228.8" fill="#000000" font-family="Verdana" font-size="12">demonstration</text>
</g>

<!-- Entity POST -->
<g id="entity-POST">
	<g id="frame-POST">
		<rect x="267" y="9" width="70" height="25" fill="#92c5de" stroke="#92c5de" stroke-width="0"/>
		<rect x="267" y="34.0" width="70" height="59" fill="#d1e5f0" stroke="#d1e5f0" stroke-width="0"/>
		<rect x="267" y="9" width="70" height="84" fill="none" stroke="#4393c3" stroke-width="2"/>
		<line x1="267" y1="34" x2="337" y2="34" stroke="#4393c3" stroke-width="1"/>
	</g>
	<text x="285" y="26.7" fill="#000000" font-family="Verdana" font-size="12">POST</text>
	<text x="272" y="51.8" fill="#000000" font-family="Verdana" font-size="12">post code</text>
	<line x1="272" y1="54" x2="331" y2="54" stroke="#000000" stroke-width="1"/>
	<text x="272" y="68.8" fill="#000000" font-family="Verdana" font-size="12">title</text>
	<text x="272" y="85.8" fill="#000000" font-family="Verdana" font-size="12">content</text>
</g>

<!-- Entity SKILL -->
<g id="entity-SKILL">
	<g id="frame-SKILL">
		<rect x="23" y="278" width="68" height="25" fill="#92c5de" stroke="#92c5de" stroke-width="0"/>
		<rect x="23" y="303.0" width="68" height="43" fill="#d1e5f0" stroke="#d1e5f0" stroke-width="0"/>
		<rect x="23" y="278" width="68" height="68" fill="none" stroke="#4393c3" stroke-width="2"/>
		<line x1="23" y1="303" x2="91" y2="303" stroke="#4393c3" stroke-width="1"/>
	</g>
	<text x="39" y="295.7" fill="#000000" font-family="Verdana" font-size="12">SKILL</text>
	<text x="28" y="320.8" fill="#000000" font-family="Verdana" font-size="12">skill code</text>
	<line x1="28" y1="323" x2="85" y2="323" stroke="#000000" stroke-width="1"/>
	<text x="28" y="337.8" fill="#000000" font-family="Verdana" font-size="12">name</text>
</g>

<!-- Entity USER -->
<g id="entity-USER">
	<g id="frame-USER">
		<rect x="267" y="219" width="70" height="25" fill="#92c5de" stroke="#92c5de" stroke-width="0"/>
		<rect x="267" y="244.0" width="70" height="161" fill="#d1e5f0" stroke="#d1e5f0" stroke-width="0"/>
		<rect x="267" y="219" width="70" height="186" fill="none" stroke="#4393c3" stroke-width="2"/>
		<line x1="267" y1="244" x2="337" y2="244" stroke="#4393c3" stroke-width="1"/>
	</g>
	<text x="285" y="236.7" fill="#000000" font-family="Verdana" font-size="12">USER</text>
	<text x="272" y="261.7" fill="#000000" font-family="Verdana" font-size="12">user code</text>
	<line x1="272" y1="264" x2="332" y2="264" stroke="#000000" stroke-width="1"/>
	<text x="272" y="278.7" fill="#000000" font-family="Verdana" font-size="12">firstname</text>
	<text x="272" y="295.7" fill="#000000" font-family="Verdana" font-size="12">lastname</text>
	<text x="272" y="312.8" fill="#000000" font-family="Verdana" font-size="12">age</text>
	<text x="272" y="329.8" fill="#000000" font-family="Verdana" font-size="12">profil</text>
	<text x="272" y="346.8" fill="#000000" font-family="Verdana" font-size="12">email</text>
	<text x="272" y="363.8" fill="#000000" font-family="Verdana" font-size="12">github</text>
	<text x="272" y="380.8" fill="#000000" font-family="Verdana" font-size="12">twitter</text>
	<text x="272" y="397.8" fill="#000000" font-family="Verdana" font-size="12">linkedin</text>
</g>
</svg>